<?xml version="1.0" encoding="iso-8859-1"?>
<!-- Uploaded to: SVG Repo, www.svgrepo.com, Generator: SVG Repo Mixer Tools -->
<!DOCTYPE svg PUBLIC "-//W3C//DTD SVG 1.1//EN" "http://www.w3.org/Graphics/SVG/1.1/DTD/svg11.dtd">
<svg fill="#000000" version="1.1" id="Capa_1" xmlns="http://www.w3.org/2000/svg" xmlns:xlink="http://www.w3.org/1999/xlink" 
	 width="800px" height="800px" viewBox="0 0 134.777 134.777"
	 xml:space="preserve">
<g>
	<path d="M85.631,95.137c0.031,1.962,0.011,4.473-0.322,7.246c-0.152,1.202-0.363,2.373-0.559,3.555
		c-4.388,1.477-9.022,2.341-13.812,2.341c-16.102,0-30.828-8.838-38.427-23.061l-0.248-0.675c-0.546-2.373,0.276-5.532,1.988-7.678
		c0.48-0.612,1.031-1.076,1.608-1.467c6.022,13.4,19.461,22.755,35.079,22.755C76.155,98.153,81.09,97.025,85.631,95.137z
		 M106.113,75.225c-1.803,4.056-4.355,7.684-7.372,10.869c1.408,2.099,2.731,5.12,3.939,8.432c2.584-2.758,4.856-5.869,6.697-9.308
		l0.253-0.686c0.464-2.104-0.163-5.653-2.02-7.979C107.158,76.005,106.635,75.583,106.113,75.225z M97.28,35.561
		c5.838,6.365,9.439,14.811,9.439,24.131c0,10.413-4.477,19.751-11.58,26.286c0.021,0.005,0.048,0,0.063,0
		c2.394,0.363,11.865,26.699,8.469,29.731c-7.931-2.199-9.851,11.174-15.862,19.068c-4.725-11.143-1.197-21.015,0.163-32.067
		c0.76-6.181,0.017-11.054,0.401-11.792c0.011-0.01,0.021-0.021,0.021-0.031c-5.168,2.89-11.116,4.566-17.46,4.566
		c-19.765,0-35.775-16.01-35.775-35.767c0-2.984,0.417-5.869,1.113-8.641c-8.575,0.805-15.541,0.256-16.53-3.433
		c-0.503-1.88-1.54-5.735,17.755-13.413C34.094,17.794,41.64,5.908,58.476,1.399c16.835-4.514,29.318,2.009,34.576,17.906
		c20.545-2.979,21.573,0.865,22.074,2.755C116.328,26.535,107.616,31.429,97.28,35.561z M81.186,53.503
		c0,1.922,1.561,3.478,3.485,3.478c1.92,0,3.47-1.561,3.47-3.478c0-1.917-1.55-3.472-3.47-3.472
		C82.747,50.031,81.186,51.592,81.186,53.503z M66.09,58.838c1.922,0,3.473-1.559,3.473-3.476c0-1.919-1.55-3.473-3.473-3.473
		c-1.922,0-3.483,1.561-3.483,3.473C62.607,57.284,64.168,58.838,66.09,58.838z M85.652,73.627c0-0.602-0.506-1.107-1.107-1.107
		c-0.606,0-1.107,0.506-1.107,1.107c0,3.333-3.174,6.038-7.082,6.038c-3.921,0-7.111-2.705-7.111-6.038
		c0-0.602-0.495-1.107-1.107-1.107c-0.604,0-1.107,0.506-1.107,1.107c0,4.546,4.19,8.253,9.332,8.253
		C81.481,81.88,85.652,78.178,85.652,73.627z M97.069,62.84c-0.29-2.525-18.662-2.494-21.199-2.204
		c-2.533,0.287-4.353,2.584-4.061,5.104c0.285,2.531,2.579,4.351,5.105,4.056C79.461,69.498,97.359,65.379,97.069,62.84z"/>
</g>
</svg>